<svg width="105" height="24" viewBox="0 0 105 24" fill="none" xmlns="http://www.w3.org/2000/svg">
<path d="M24.1756 24L28.1253 18.02C28.8108 16.982 29.6945 16.089 30.7258 15.3919C31.7572 14.6947 32.9161 14.2072 34.1362 13.9571V13.9571C35.3564 13.707 36.5152 13.2195 37.5465 12.5225C38.5778 11.8254 39.4615 10.9325 40.147 9.89468L46.683 0L29.8532 3.45002C29.1578 3.59156 28.504 3.88982 27.9418 4.32202C27.3796 4.75422 26.9238 5.30892 26.6092 5.94376C25.4479 8.29697 24.618 10.7991 24.1433 13.3791L23.8338 15.4968C23.8123 15.6915 23.7934 15.8863 23.7773 16.081C23.7046 16.9122 23.6678 17.7533 23.6669 18.6043C23.6661 20.4148 23.8364 22.2214 24.1756 24" fill="#F94608"/>
<path d="M22.4007 23.9999L18.4697 18.0199C17.7874 16.9819 16.908 16.0889 15.8815 15.3918C14.855 14.6947 13.7017 14.2071 12.4873 13.957V13.957C11.2729 13.7069 10.1196 13.2194 9.09318 12.5224C8.06674 11.8254 7.18727 10.9325 6.50499 9.89462L0 0L16.7499 3.45013C17.442 3.59165 18.0927 3.8899 18.6523 4.3221C19.2118 4.7543 19.6655 5.309 19.9786 5.94386C21.1345 8.29706 21.9604 10.7992 22.4329 13.3791L22.7409 15.4969C22.7623 15.6916 22.7811 15.8863 22.7971 16.081C22.8695 16.9123 22.9061 17.7534 22.907 18.6043C22.9078 20.4148 22.7383 22.2214 22.4007 24" fill="#F94608"/>
<path d="M61.4135 12.9983C61.4135 10.0185 59.5211 7.9246 57.0046 7.9246C55.6961 7.9246 54.5687 8.46821 53.8037 9.43463V3.65625H51.1865V17.8505H53.7231V16.6425C54.3674 17.5083 55.4746 18.0519 56.7832 18.0519C59.5614 18.0519 61.4135 15.9982 61.4135 12.9983ZM58.7964 12.9983C58.7964 14.7902 57.669 15.8372 56.3604 15.8372C54.8908 15.8372 53.8238 14.6895 53.8238 13.0587V12.8574C53.8238 11.1661 54.9914 10.1393 56.3403 10.1393C57.7092 10.1393 58.7964 11.2064 58.7964 12.9983Z" fill="black"/>
<path d="M68.1264 11.8909L65.4287 12.2332C63.3753 12.495 62.3083 13.6023 62.3083 15.213C62.3083 16.8841 63.6571 18.0519 65.5696 18.0519C67.1198 18.0519 68.3277 17.3271 68.7907 16.3606V17.8505H71.3072V11.5285C71.3072 9.17289 69.8175 7.9246 67.0795 7.9246C64.4624 7.9246 62.7109 9.25343 62.7109 11.2668H65.3281C65.3281 10.3004 66.0327 9.75677 67.0795 9.75677C68.1063 9.75677 68.6901 10.2803 68.6901 11.1057V11.2467C68.6901 11.5889 68.4686 11.8507 68.1264 11.8909ZM64.9254 14.8707C64.9254 14.1258 65.4287 13.703 66.1937 13.6225L67.6432 13.4614C68.1666 13.401 68.6096 13.2802 68.7907 13.1996V13.8238C68.7907 15.0922 67.8848 16.0989 66.4152 16.0989C65.5092 16.0989 64.9254 15.5956 64.9254 14.8707Z" fill="black"/>
<path d="M75.7796 13.7634C75.7796 11.5084 76.8466 10.4413 78.739 10.4413H79.4638L79.5644 8.08567H78.6988C76.9876 8.08567 75.9206 9.07223 75.6991 10.4615V8.08567H73.1625V17.8505H75.7796V13.7634Z" fill="black"/>
<path d="M89.3303 11.8104C89.1088 9.45477 87.3171 7.9246 84.6395 7.9246C81.6399 7.9246 79.5462 10.0386 79.5462 12.9983C79.5462 15.9177 81.66 18.0519 84.6395 18.0519C87.297 18.0519 89.29 16.421 89.5517 14.0453H86.9144C86.7131 15.1325 85.8475 15.8372 84.6395 15.8372C83.1901 15.8372 82.2036 14.6694 82.2036 12.9983C82.2036 11.3071 83.1498 10.1393 84.6395 10.1393C85.7468 10.1393 86.5722 10.8037 86.7131 11.8104H89.3303Z" fill="black"/>
<path d="M93.5877 8.08567H90.9705V17.8505H93.5877V8.08567Z" fill="black"/>
<path d="M98.1955 12.7567C98.1955 11.1057 99.0411 10.1393 100.45 10.1393C101.618 10.1393 102.383 10.8843 102.383 12.4144V17.8505H105V12.3138C105 9.5353 103.551 7.9246 101.155 7.9246C99.8866 7.9246 98.8397 8.44808 98.115 9.4145V8.08567H95.5784V17.8505H98.1955V12.7567Z" fill="black"/>
<path d="M83.5825 18.6167H85.8954L85.3998 20.9146H83.0869L83.5825 18.6167Z" fill="black"/>
</svg>
